<mxfile host="drawio-plugin" modified="2021-06-17T21:11:24.322Z" agent="5.0 (Macintosh; Intel Mac OS X 11_4_0) AppleWebKit/537.36 (KHTML, like Gecko) Chrome/87.0.4280.141 Safari/537.36" version="14.7.4" etag="o_1S6cfLERKXHW1qXUQg" type="embed"><diagram id="VwUfr1MPXzOF-PHVqk4a" name="Casos de uso"><mxGraphModel dx="1384" dy="1173" grid="1" gridSize="10" guides="1" tooltips="1" connect="1" arrows="1" fold="1" page="1" pageScale="1" pageWidth="850" pageHeight="1100" math="0" shadow="0"><root><mxCell id="0"/><mxCell id="1" parent="0"/><mxCell id="8" style="rounded=0;orthogonalLoop=1;jettySize=auto;html=1;entryX=0;entryY=0.5;entryDx=0;entryDy=0;" edge="1" parent="1" source="2" target="3"><mxGeometry relative="1" as="geometry"><Array as="points"><mxPoint x="200" y="320"/></Array></mxGeometry></mxCell><mxCell id="9" style="edgeStyle=none;rounded=0;orthogonalLoop=1;jettySize=auto;html=1;entryX=0;entryY=0.5;entryDx=0;entryDy=0;" edge="1" parent="1" source="2" target="5"><mxGeometry relative="1" as="geometry"><Array as="points"><mxPoint x="200" y="320"/></Array></mxGeometry></mxCell><mxCell id="10" style="edgeStyle=none;rounded=0;orthogonalLoop=1;jettySize=auto;html=1;entryX=0;entryY=0.5;entryDx=0;entryDy=0;" edge="1" parent="1" source="2" target="6"><mxGeometry relative="1" as="geometry"><Array as="points"><mxPoint x="200" y="320"/></Array></mxGeometry></mxCell><mxCell id="11" style="edgeStyle=none;rounded=0;orthogonalLoop=1;jettySize=auto;html=1;entryX=0;entryY=0.5;entryDx=0;entryDy=0;" edge="1" parent="1" source="2" target="7"><mxGeometry relative="1" as="geometry"><Array as="points"><mxPoint x="200" y="320"/></Array></mxGeometry></mxCell><mxCell id="2" value="Usuario" style="shape=umlActor;verticalLabelPosition=bottom;verticalAlign=top;html=1;outlineConnect=0;" vertex="1" parent="1"><mxGeometry x="140" y="290" width="30" height="60" as="geometry"/></mxCell><mxCell id="3" value="Registrar una caja" style="ellipse;whiteSpace=wrap;html=1;" vertex="1" parent="1"><mxGeometry x="320" y="100" width="120" height="80" as="geometry"/></mxCell><mxCell id="5" value="Obtener QR de una caja" style="ellipse;whiteSpace=wrap;html=1;" vertex="1" parent="1"><mxGeometry x="320" y="220" width="120" height="80" as="geometry"/></mxCell><mxCell id="6" value="Añadir items a una caja" style="ellipse;whiteSpace=wrap;html=1;" vertex="1" parent="1"><mxGeometry x="320" y="340" width="120" height="80" as="geometry"/></mxCell><mxCell id="7" value="Eliminar items de una caja" style="ellipse;whiteSpace=wrap;html=1;" vertex="1" parent="1"><mxGeometry x="320" y="460" width="120" height="80" as="geometry"/></mxCell></root></mxGraphModel></diagram></mxfile>